<svg viewBox="0 0 400 400" xmlns="http://www.w3.org/2000/svg">
<g transform="translate(72, 364)">
<g>
<rect fill="blue" height="10.897032823145608" stroke="black" width="70" x="35" y="-10.897032823145608"/>
</g>
<g>
<rect fill="gray" height="309.0909090909091" stroke="black" width="70" x="175" y="-309.0909090909091"/>
</g>
<g>
<g>
<line stroke="black" stroke-width="1" x1="70" x2="70" y1="0" y2="10"/>
<line stroke="black" stroke-width="1" x1="210" x2="210" y1="0" y2="10"/>
</g>
<line stroke="black" stroke-width="1" x1="0" x2="280" y1="0" y2="0"/>
<g>
<text font-size="12" text-anchor="middle" x="70" y="20">
naga
</text>
<text font-size="12" text-anchor="middle" x="210" y="20">
glslang
</text>
</g>
<text font-size="12" text-anchor="middle" x="140" y="30">

</text>
</g>
<g>
<g>
<line stroke="black" stroke-width="1" x1="0" x2="-10" y1="-0" y2="-0"/>
<line stroke="black" stroke-width="1" x1="0" x2="-10" y1="-62.87958928531799" y2="-62.87958928531799"/>
<line stroke="black" stroke-width="1" x1="0" x2="-10" y1="-125.75917857063598" y2="-125.75917857063598"/>
<line stroke="black" stroke-width="1" x1="0" x2="-10" y1="-188.63876785595397" y2="-188.63876785595397"/>
<line stroke="black" stroke-width="1" x1="0" x2="-10" y1="-251.51835714127196" y2="-251.51835714127196"/>
<line stroke="black" stroke-width="1" x1="0" x2="-10" y1="-314.39794642658995" y2="-314.39794642658995"/>
</g>
<line stroke="black" stroke-width="1" x1="0" x2="0" y1="0" y2="-340"/>
<g>
<text dominant-baseline="middle" font-size="12" text-anchor="end" x="-15" y="-0">
0
</text>
<text dominant-baseline="middle" font-size="12" text-anchor="end" x="-15" y="-62.87958928531799">
10
</text>
<text dominant-baseline="middle" font-size="12" text-anchor="end" x="-15" y="-125.75917857063598">
20
</text>
<text dominant-baseline="middle" font-size="12" text-anchor="end" x="-15" y="-188.63876785595397">
30
</text>
<text dominant-baseline="middle" font-size="12" text-anchor="end" x="-15" y="-251.51835714127196">
40
</text>
<text dominant-baseline="middle" font-size="12" text-anchor="end" x="-15" y="-314.39794642658995">
50
</text>
</g>
<text font-size="12" text-anchor="middle" transform="rotate(-90 -24 -170)" x="-24" y="-182">
GLSL -> SPIRV time ms
</text>
</g>
</g>
</svg>