<svg viewBox="0 0 200 200" xmlns="http://www.w3.org/2000/svg">
<g transform="translate(72, 164)">
<g>
<rect fill="blue" height="4.477554029410623" stroke="black" width="20" x="10" y="-4.477554029410623"/>
</g>
<g>
<rect fill="gray" height="127.27272727272727" stroke="black" width="20" x="50" y="-127.27272727272727"/>
</g>
<g>
<g>
<line stroke="black" stroke-width="1" x1="20" x2="20" y1="0" y2="10"/>
<line stroke="black" stroke-width="1" x1="60" x2="60" y1="0" y2="10"/>
</g>
<line stroke="black" stroke-width="1" x1="0" x2="80" y1="0" y2="0"/>
<g>
<text font-size="12" text-anchor="middle" x="20" y="20">
naga
</text>
<text font-size="12" text-anchor="middle" x="60" y="20">
glslang
</text>
</g>
<text font-size="12" text-anchor="middle" x="40" y="30">

</text>
</g>
<g>
<g>
<line stroke="black" stroke-width="1" x1="0" x2="-10" y1="-0" y2="-0"/>
<line stroke="black" stroke-width="1" x1="0" x2="-10" y1="-25.8668632548274" y2="-25.8668632548274"/>
<line stroke="black" stroke-width="1" x1="0" x2="-10" y1="-51.7337265096548" y2="-51.7337265096548"/>
<line stroke="black" stroke-width="1" x1="0" x2="-10" y1="-77.60058976448221" y2="-77.60058976448221"/>
<line stroke="black" stroke-width="1" x1="0" x2="-10" y1="-103.4674530193096" y2="-103.4674530193096"/>
<line stroke="black" stroke-width="1" x1="0" x2="-10" y1="-129.33431627413702" y2="-129.33431627413702"/>
</g>
<line stroke="black" stroke-width="1" x1="0" x2="0" y1="0" y2="-140"/>
<g>
<text dominant-baseline="middle" font-size="12" text-anchor="end" x="-15" y="-0">
0
</text>
<text dominant-baseline="middle" font-size="12" text-anchor="end" x="-15" y="-25.8668632548274">
10000
</text>
<text dominant-baseline="middle" font-size="12" text-anchor="end" x="-15" y="-51.7337265096548">
20000
</text>
<text dominant-baseline="middle" font-size="12" text-anchor="end" x="-15" y="-77.60058976448221">
30000
</text>
<text dominant-baseline="middle" font-size="12" text-anchor="end" x="-15" y="-103.4674530193096">
40000
</text>
<text dominant-baseline="middle" font-size="12" text-anchor="end" x="-15" y="-129.33431627413702">
50000
</text>
</g>
<text font-size="12" text-anchor="middle" transform="rotate(-90 -60 -70)" x="-60" y="-82">
GLSL -> SPIRV time usec
</text>
</g>
</g>
</svg>