<svg viewBox="0 0 400 400" xmlns="http://www.w3.org/2000/svg">
<g transform="translate(72, 364)">
<g>
<rect fill="#4285F4" height="3.804364563184392" stroke="black" width="46.666666666666664" x="23.333333333333332" y="-3.804364563184392"/>
</g>
<g>
<rect fill="#34A853" height="309.09090909090907" stroke="black" width="46.666666666666664" x="116.66666666666667" y="-309.09090909090907"/>
</g>
<g>
<rect fill="#EA4335" height="39.691538801086956" stroke="black" width="46.666666666666664" x="209.99999999999997" y="-39.691538801086956"/>
</g>
<g>
<g>
<line stroke="black" stroke-width="1" x1="46.666666666666664" x2="46.666666666666664" y1="0" y2="10"/>
<line stroke="black" stroke-width="1" x1="140" x2="140" y1="0" y2="10"/>
<line stroke="black" stroke-width="1" x1="233.33333333333331" x2="233.33333333333331" y1="0" y2="10"/>
</g>
<line stroke="black" stroke-width="1" x1="0" x2="280" y1="0" y2="0"/>
<g>
<text font-size="12" text-anchor="middle" x="46.666666666666664" y="20">
naga
</text>
<text font-size="12" text-anchor="middle" x="140" y="20">
tint
</text>
<text font-size="12" text-anchor="middle" x="233.33333333333331" y="20">
cross
</text>
</g>
<text font-size="12" text-anchor="middle" x="140" y="30">

</text>
</g>
<g>
<g>
<line stroke="black" stroke-width="1" x1="0" x2="-10" y1="-0" y2="-0"/>
<line stroke="black" stroke-width="1" x1="0" x2="-10" y1="-99.72122052907973" y2="-99.72122052907973"/>
<line stroke="black" stroke-width="1" x1="0" x2="-10" y1="-199.44244105815946" y2="-199.44244105815946"/>
<line stroke="black" stroke-width="1" x1="0" x2="-10" y1="-299.1636615872392" y2="-299.1636615872392"/>
</g>
<line stroke="black" stroke-width="1" x1="0" x2="0" y1="0" y2="-340"/>
<g>
<text dominant-baseline="middle" font-size="12" text-anchor="end" x="-15" y="-0">
0
</text>
<text dominant-baseline="middle" font-size="12" text-anchor="end" x="-15" y="-99.72122052907973">
40
</text>
<text dominant-baseline="middle" font-size="12" text-anchor="end" x="-15" y="-199.44244105815946">
80
</text>
<text dominant-baseline="middle" font-size="12" text-anchor="end" x="-15" y="-299.1636615872392">
120
</text>
</g>
<text font-size="12" text-anchor="middle" transform="rotate(-90 -36 -170)" x="-36" y="-182">
SPIRV -> MSL time (ms)
</text>
</g>
</g>
</svg>