<svg viewBox="0 0 400 400" xmlns="http://www.w3.org/2000/svg">
<g transform="translate(72, 364)">
<g>
<rect fill="#4285F4" height="23.2854669064628" stroke="black" width="70" x="35" y="-23.2854669064628"/>
</g>
<g>
<rect fill="#34A853" height="309.09090909090907" stroke="black" width="70" x="175" y="-309.09090909090907"/>
</g>
<g>
<g>
<line stroke="black" stroke-width="1" x1="70" x2="70" y1="0" y2="10"/>
<line stroke="black" stroke-width="1" x1="210" x2="210" y1="0" y2="10"/>
</g>
<line stroke="black" stroke-width="1" x1="0" x2="280" y1="0" y2="0"/>
<g>
<text font-size="12" text-anchor="middle" x="70" y="20">
naga
</text>
<text font-size="12" text-anchor="middle" x="210" y="20">
tint
</text>
</g>
<text font-size="12" text-anchor="middle" x="140" y="30">

</text>
</g>
<g>
<g>
<line stroke="black" stroke-width="1" x1="0" x2="-10" y1="-0" y2="-0"/>
<line stroke="black" stroke-width="1" x1="0" x2="-10" y1="-75.72509563077334" y2="-75.72509563077334"/>
<line stroke="black" stroke-width="1" x1="0" x2="-10" y1="-151.45019126154668" y2="-151.45019126154668"/>
<line stroke="black" stroke-width="1" x1="0" x2="-10" y1="-227.17528689232" y2="-227.17528689232"/>
<line stroke="black" stroke-width="1" x1="0" x2="-10" y1="-302.90038252309336" y2="-302.90038252309336"/>
</g>
<line stroke="black" stroke-width="1" x1="0" x2="0" y1="0" y2="-340"/>
<g>
<text dominant-baseline="middle" font-size="12" text-anchor="end" x="-15" y="-0">
0
</text>
<text dominant-baseline="middle" font-size="12" text-anchor="end" x="-15" y="-75.72509563077334">
4
</text>
<text dominant-baseline="middle" font-size="12" text-anchor="end" x="-15" y="-151.45019126154668">
8
</text>
<text dominant-baseline="middle" font-size="12" text-anchor="end" x="-15" y="-227.17528689232">
12
</text>
<text dominant-baseline="middle" font-size="12" text-anchor="end" x="-15" y="-302.90038252309336">
16
</text>
</g>
<text font-size="12" text-anchor="middle" transform="rotate(-90 -24 -170)" x="-24" y="-182">
WGSL -> GLSL time (ms)
</text>
</g>
</g>
</svg>