<svg viewBox="0 0 400 400" xmlns="http://www.w3.org/2000/svg">
<g transform="translate(72, 364)">
<g>
<rect fill="blue" height="19.001704257573195" stroke="black" width="70" x="35" y="-19.001704257573195"/>
</g>
<g>
<rect fill="green" height="309.09090909090907" stroke="black" width="70" x="175" y="-309.09090909090907"/>
</g>
<g>
<g>
<line stroke="black" stroke-width="1" x1="70" x2="70" y1="0" y2="10"/>
<line stroke="black" stroke-width="1" x1="210" x2="210" y1="0" y2="10"/>
</g>
<line stroke="black" stroke-width="1" x1="0" x2="280" y1="0" y2="0"/>
<g>
<text font-size="12" text-anchor="middle" x="70" y="20">
naga
</text>
<text font-size="12" text-anchor="middle" x="210" y="20">
tint
</text>
</g>
<text font-size="12" text-anchor="middle" x="140" y="30">

</text>
</g>
<g>
<g>
<line stroke="black" stroke-width="1" x1="0" x2="-10" y1="-0" y2="-0"/>
<line stroke="black" stroke-width="1" x1="0" x2="-10" y1="-104.40496844820439" y2="-104.40496844820439"/>
<line stroke="black" stroke-width="1" x1="0" x2="-10" y1="-208.80993689640877" y2="-208.80993689640877"/>
<line stroke="black" stroke-width="1" x1="0" x2="-10" y1="-313.21490534461316" y2="-313.21490534461316"/>
</g>
<line stroke="black" stroke-width="1" x1="0" x2="0" y1="0" y2="-340"/>
<g>
<text dominant-baseline="middle" font-size="12" text-anchor="end" x="-15" y="-0">
0
</text>
<text dominant-baseline="middle" font-size="12" text-anchor="end" x="-15" y="-104.40496844820439">
2
</text>
<text dominant-baseline="middle" font-size="12" text-anchor="end" x="-15" y="-208.80993689640877">
4
</text>
<text dominant-baseline="middle" font-size="12" text-anchor="end" x="-15" y="-313.21490534461316">
6
</text>
</g>
<text font-size="12" text-anchor="middle" transform="rotate(-90 -12 -170)" x="-12" y="-182">
WGSL -> GLSL time ms
</text>
</g>
</g>
</svg>